<svg width="12" height="19" viewBox="0 0 12 19" fill="none" xmlns="http://www.w3.org/2000/svg">
<path d="M0.292893 1.70711C-0.0976315 1.31658 -0.0976315 0.683417 0.292893 0.292893C0.683417 -0.0976311 1.31658 -0.0976311 1.70711 0.292893L0.292893 1.70711ZM10 10L10.7071 9.29289L11.457 10.0428L10.6644 10.7474L10 10ZM1.66436 18.7474C1.25158 19.1143 0.619509 19.0771 0.252591 18.6644C-0.114327 18.2516 -0.0771465 17.6195 0.335636 17.2526L1.66436 18.7474ZM1.70711 0.292893L10.7071 9.29289L9.29289 10.7071L0.292893 1.70711L1.70711 0.292893ZM10.6644 10.7474L1.66436 18.7474L0.335636 17.2526L9.33564 9.25259L10.6644 10.7474Z" fill="white"/>
</svg>
